<svg xmlns="http://www.w3.org/2000/svg" width="157.255" height="76.235" class="Footer_logoSvg__px-kQ" data-name="Сгруппировать 47"><g fill="#0093d8" data-name="Сгруппировать 2"><path d="M22.128 56.806a8.115 8.115 0 0 1-4.992-1.417 4.486 4.486 0 0 1-1.889-3.778 18.068 18.068 0 0 1 1.079-5.262 18.234 18.234 0 0 0 1.079-4.453 1.134 1.134 0 0 0-1.282-1.282q-1.755 0-3.711 3.846a24.248 24.248 0 0 0-1.788 5.4 26.928 26.928 0 0 0-.911 5.195 1.465 1.465 0 0 1-.337 1.113 1.589 1.589 0 0 1-1.08.3q-1.148 0-3.879.169t-3.137.169q-1.281 0-1.282-1.484 0-2.429 2.968-13.662t2.969-16.428q0-3.3-2.226-3.306-1.012 0-1.012-.81 0-1.147 2.5-2.4a11.615 11.615 0 0 1 5.262-1.248 6.671 6.671 0 0 1 4.419 1.383 4.782 4.782 0 0 1 1.653 3.879q0 4.386-3.845 16.461a11.058 11.058 0 0 1 8.635-3.778 7.272 7.272 0 0 1 4.453 1.214A3.979 3.979 0 0 1 27.393 40a16.179 16.179 0 0 1-1.012 4.723 16.335 16.335 0 0 0-1.012 4.858 1.73 1.73 0 0 0 .506 1.214 1.639 1.639 0 0 0 1.248.54 3.917 3.917 0 0 0 2.564-1.417 1.844 1.844 0 0 1 1.147-.675.835.835 0 0 1 .944.944 4.26 4.26 0 0 1-1.08 2.159 10.443 10.443 0 0 1-8.57 4.46Z" data-name="Контур 2"/><path d="M60.178 52.354a13.393 13.393 0 0 1-3.677 3.07 10.036 10.036 0 0 1-5.229 1.383 5.692 5.692 0 0 1-3.2-.911 5.438 5.438 0 0 1-1.856-1.788l-.472-.877a7.212 7.212 0 0 1-.877 1.012 12.5 12.5 0 0 1-7.286 2.564 7.974 7.974 0 0 1-5.633-2.091 7.513 7.513 0 0 1-2.26-5.8 13.981 13.981 0 0 1 3.474-9.513q3.474-3.98 10.221-3.98a12.017 12.017 0 0 1 3.947.641 15.953 15.953 0 0 0 2.058.641 14.674 14.674 0 0 0 3.2-.641 15.094 15.094 0 0 1 3.07-.641.894.894 0 0 1 1.012 1.012q0 .339-1.181 4.689a29.2 29.2 0 0 0-1.181 7.455 2.893 2.893 0 0 0 .675 2.024 2.109 2.109 0 0 0 1.619.742 3.918 3.918 0 0 0 2.564-1.417 1.843 1.843 0 0 1 1.147-.674.835.835 0 0 1 .945.945 4.261 4.261 0 0 1-1.08 2.155ZM45.673 40.413q0-1.281-1.214-1.282-1.687 0-3.171 3.508a17.727 17.727 0 0 0-1.484 6.949q0 2.5 1.619 2.5t2.935-4.082a24.838 24.838 0 0 0 1.315-7.593Z" data-name="Контур 3"/><path d="M80.889 56.806a7.826 7.826 0 0 1-4.892-1.518 4.5 4.5 0 0 1-1.99-3.677 16.955 16.955 0 0 1 1.079-5.363 16.45 16.45 0 0 0 1.079-4.284q0-1.417-1.214-1.417a2.35 2.35 0 0 0-1.687.843 12.968 12.968 0 0 0-1.889 3 31.859 31.859 0 0 0-1.923 5.33 21.064 21.064 0 0 0-.978 5.33q0 1.417-1.484 1.417-1.148 0-3.71.169t-2.969.169q-1.416 0-1.416-1.484a56.234 56.234 0 0 1 1.416-7.185 46.06 46.06 0 0 0 1.417-8.062 3.082 3.082 0 0 0-.236-1.181 2.642 2.642 0 0 1-.236-.978q0-1.079 2.631-1.788a21.989 21.989 0 0 1 5.734-.708q2.293 0 2.294 1.754l-.4 2.563a13.045 13.045 0 0 1 3.745-2.9 10.449 10.449 0 0 1 5.161-1.416 6.413 6.413 0 0 1 4.116 1.147 3.784 3.784 0 0 1 1.417 3.1 20.011 20.011 0 0 1-.945 4.925 20.042 20.042 0 0 0-.945 4.655 2.209 2.209 0 0 0 .506 1.518 1.671 1.671 0 0 0 1.315.573 3.919 3.919 0 0 0 2.564-1.417 1.843 1.843 0 0 1 1.147-.674.835.835 0 0 1 .944.945 4.262 4.262 0 0 1-1.079 2.159 10.443 10.443 0 0 1-8.572 4.455Z" data-name="Контур 4"/><path d="M115.093 51.341a3.917 3.917 0 0 0 2.565-1.416 1.844 1.844 0 0 1 1.147-.675.835.835 0 0 1 .944.944 4.261 4.261 0 0 1-1.079 2.159 13.391 13.391 0 0 1-3.677 3.07 10.036 10.036 0 0 1-5.228 1.383 5.689 5.689 0 0 1-3.137-.843 4.669 4.669 0 0 1-1.721-1.653l-.4-.877a11.214 11.214 0 0 1-1.113.945 15.942 15.942 0 0 1-2.9 1.484 10.942 10.942 0 0 1-4.351.944 7.493 7.493 0 0 1-5.6-2.058 7.874 7.874 0 0 1-2.024-5.768 13.422 13.422 0 0 1 3.744-9.648 12.482 12.482 0 0 1 9.412-3.913 8.762 8.762 0 0 1 4.925 1.147 45.779 45.779 0 0 0 1.619-11.334q0-3.3-2.226-3.306-1.012 0-1.012-.81 0-1.147 2.665-2.4a12.686 12.686 0 0 1 5.431-1.248 6.062 6.062 0 0 1 4.183 1.383 4.929 4.929 0 0 1 1.552 3.879q0 2.7-2.834 12.11t-2.834 13.729q-.007 2.773 1.949 2.772Zm-10.592-10.93q0-1.28-1.214-1.282-1.687 0-3.171 3.508a17.731 17.731 0 0 0-1.484 6.949q0 2.5 1.619 2.5t2.935-4.082a24.838 24.838 0 0 0 1.315-7.592Z" data-name="Контур 5"/><path d="M126.225 66.724a4.608 4.608 0 0 0 3.07-1.113 8 8 0 0 0 2.158-3.272 30.183 30.183 0 0 0 1.316-4.217q.471-2.059.945-4.959a13.418 13.418 0 0 1-9.715 3.643 6.586 6.586 0 0 1-4.352-1.484 4.628 4.628 0 0 1-1.788-3.711 26 26 0 0 1 1.113-6.544 28.639 28.639 0 0 0 1.114-4.992 3.081 3.081 0 0 0-.236-1.181 2.637 2.637 0 0 1-.236-.978q0-1.079 2.7-1.788a22.764 22.764 0 0 1 5.8-.708q2.292 0 2.294 1.754a26.068 26.068 0 0 1-1.181 5.5 25.332 25.332 0 0 0-1.181 6.375q0 2.092 1.754 2.092a2.122 2.122 0 0 0 1.518-.54 8.647 8.647 0 0 0 1.383-2.024 14.174 14.174 0 0 0 1.45-4.014 20.621 20.621 0 0 0 .573-4.486 3.082 3.082 0 0 0-.236-1.181 2.637 2.637 0 0 1-.236-.978q0-1.079 2.7-1.788a22.767 22.767 0 0 1 5.8-.708q2.293 0 2.294 1.754a6.469 6.469 0 0 1-.236 1.585q-.237.911-.911 4.048t-1.484 7.86q-1.89 11-3.778 15.652-4.116 9.917-12.751 9.917a10.49 10.49 0 0 1-6.679-2.227 6.906 6.906 0 0 1-2.833-5.667 7.4 7.4 0 0 1 2.226-5.667 6.374 6.374 0 0 1 4.183-2.091q.742 0 .743.607a2.843 2.843 0 0 1-.3.945 3.747 3.747 0 0 0-.3 1.552 2.775 2.775 0 0 0 .944 2.226 3.5 3.5 0 0 0 2.355.808Z" data-name="Контур 6"/></g><g fill="#38b951" data-name="Сгруппировать 3"><path d="M37.163 26.737a5.516 5.516 0 0 1-3.394-.963 3.05 3.05 0 0 1-1.284-2.568 12.279 12.279 0 0 1 .734-3.577 12.4 12.4 0 0 0 .734-3.027.771.771 0 0 0-.871-.871q-1.193 0-2.522 2.614a16.48 16.48 0 0 0-1.215 3.669 18.313 18.313 0 0 0-.619 3.531 1 1 0 0 1-.229.757 1.08 1.08 0 0 1-.734.206q-.78 0-2.637.115t-2.132.114q-.87 0-.871-1.009 0-1.651 2.018-9.287t2.018-11.167q0-2.246-1.514-2.247-.688 0-.688-.55 0-.779 1.7-1.628a7.9 7.9 0 0 1 3.577-.848 4.535 4.535 0 0 1 3 .94 3.25 3.25 0 0 1 1.124 2.637q0 2.982-2.614 11.19a7.516 7.516 0 0 1 5.87-2.568 4.944 4.944 0 0 1 3.027.825 2.705 2.705 0 0 1 1.1 2.293 11 11 0 0 1-.688 3.211 11.1 11.1 0 0 0-.688 3.3 1.176 1.176 0 0 0 .344.825 1.115 1.115 0 0 0 .849.367 2.664 2.664 0 0 0 1.743-.963 1.253 1.253 0 0 1 .779-.459.568.568 0 0 1 .642.642 2.9 2.9 0 0 1-.734 1.467 7.1 7.1 0 0 1-5.825 3.029Z" data-name="Контур 7"/><path d="M63.026 23.71a9.1 9.1 0 0 1-2.5 2.087 6.826 6.826 0 0 1-3.554.94 3.869 3.869 0 0 1-2.179-.619 3.692 3.692 0 0 1-1.261-1.215l-.321-.6a4.915 4.915 0 0 1-.6.688 8.5 8.5 0 0 1-4.953 1.743 5.418 5.418 0 0 1-3.829-1.422 5.106 5.106 0 0 1-1.536-3.944 9.5 9.5 0 0 1 2.362-6.466q2.361-2.705 6.948-2.706a8.169 8.169 0 0 1 2.683.436 10.8 10.8 0 0 0 1.4.436 9.971 9.971 0 0 0 2.178-.436 10.255 10.255 0 0 1 2.087-.436.608.608 0 0 1 .688.688q0 .23-.8 3.188a19.839 19.839 0 0 0-.8 5.067 1.966 1.966 0 0 0 .459 1.376 1.434 1.434 0 0 0 1.1.5 2.662 2.662 0 0 0 1.743-.963 1.253 1.253 0 0 1 .779-.459.568.568 0 0 1 .642.642 2.9 2.9 0 0 1-.736 1.475Zm-9.86-8.117q0-.87-.826-.871-1.147 0-2.155 2.385a12.046 12.046 0 0 0-1.009 4.724q0 1.7 1.1 1.7t2-2.775a16.881 16.881 0 0 0 .89-5.163Z" data-name="Контур 8"/><path d="M67.336 26.737a5.124 5.124 0 0 1-3.6-1.238 4 4 0 0 1-1.353-3.073q0-1.742 1.765-7.5a34.1 34.1 0 0 0 1.766-9.654q0-2.246-1.559-2.247-.643 0-.642-.55 0-.779 1.7-1.628a7.9 7.9 0 0 1 3.577-.848 4.555 4.555 0 0 1 2.981.94 3.222 3.222 0 0 1 1.146 2.637q0 1.835-1.834 8.714t-1.835 9.126a1.835 1.835 0 0 0 .344 1.169 1.085 1.085 0 0 0 .894.436 2.662 2.662 0 0 0 1.743-.963 1.254 1.254 0 0 1 .78-.459.568.568 0 0 1 .642.642 2.9 2.9 0 0 1-.734 1.467 7.058 7.058 0 0 1-5.781 3.029Z" data-name="Контур 9"/><path d="M77.425 26.737a5.124 5.124 0 0 1-3.6-1.238 4 4 0 0 1-1.353-3.073q0-1.742 1.766-7.5a34.118 34.118 0 0 0 1.765-9.654q0-2.246-1.559-2.247-.642 0-.642-.55 0-.779 1.7-1.628a7.9 7.9 0 0 1 3.577-.848 4.555 4.555 0 0 1 2.981.94 3.222 3.222 0 0 1 1.146 2.637q0 1.835-1.834 8.714t-1.834 9.126a1.835 1.835 0 0 0 .344 1.169 1.085 1.085 0 0 0 .894.436 2.662 2.662 0 0 0 1.743-.963 1.254 1.254 0 0 1 .78-.459.568.568 0 0 1 .642.642 2.9 2.9 0 0 1-.734 1.467 7.057 7.057 0 0 1-5.782 3.029Z" data-name="Контур 10"/><path d="M92.604 12.016a6.082 6.082 0 0 1 4.426 1.582 5.359 5.359 0 0 1 1.628 4.013 9.723 9.723 0 0 1-2.316 6.7 8.446 8.446 0 0 1-6.673 2.614 7.775 7.775 0 0 1-5.09-1.651 5.353 5.353 0 0 1-2.018-4.357 8.4 8.4 0 0 1 2.775-6.214 10.014 10.014 0 0 1 7.268-2.687Zm2.018 8.072a1.708 1.708 0 0 0-.917-1.743 4.4 4.4 0 0 1-1.376-.779 1.3 1.3 0 0 1-.367-.963 2.329 2.329 0 0 1 .367-1.238 4.776 4.776 0 0 0 .367-.642c0-.184-.108-.275-.321-.275a2.17 2.17 0 0 0-1.33.734q-1.606 1.468-1.605 5 0 3.257 2.385 3.256a2.439 2.439 0 0 0 2-1.032 3.68 3.68 0 0 0 .797-2.318Z" data-name="Контур 11"/></g><g data-name="Сгруппировать 6"><g data-name="Сгруппировать 4"><path fill="#38b951" d="M152.913 35.891a3.493 3.493 0 1 1-3.493 3.493 3.5 3.5 0 0 1 3.493-3.493m0-.849a4.342 4.342 0 1 0 4.342 4.341 4.342 4.342 0 0 0-4.342-4.341Z" data-name="Контур 12"/></g><g data-name="Сгруппировать 5"><path fill="#40bc58" d="m154.094 41.51-.846-1.222h-.934v1.222h-1.015v-4.388h1.9c1.172 0 1.906.608 1.906 1.592a1.426 1.426 0 0 1-.9 1.385l.984 1.41Zm-.953-3.56h-.827v1.53h.827c.621 0 .934-.289.934-.765s-.313-.765-.93-.765Z" data-name="Контур 13"/></g></g></svg>